<mxfile host="app.diagrams.net" modified="2024-05-11T19:10:42.721Z" agent="Mozilla/5.0 (Windows NT 10.0; Win64; x64) AppleWebKit/537.36 (KHTML, like Gecko) Chrome/124.0.0.0 Safari/537.36" etag="-lwKQ_NI6LezCzDPoo4O" version="24.2.7" type="device">
  <diagram id="C5RBs43oDa-KdzZeNtuy" name="Page-1">
    <mxGraphModel dx="988" dy="561" grid="1" gridSize="10" guides="1" tooltips="1" connect="1" arrows="1" fold="1" page="1" pageScale="1" pageWidth="827" pageHeight="1169" math="0" shadow="0">
      <root>
        <mxCell id="WIyWlLk6GJQsqaUBKTNV-0" />
        <mxCell id="WIyWlLk6GJQsqaUBKTNV-1" parent="WIyWlLk6GJQsqaUBKTNV-0" />
        <mxCell id="Wk7fpPeWcC95KeSPL6q8-1" value="" style="rounded=1;whiteSpace=wrap;html=1;" vertex="1" parent="WIyWlLk6GJQsqaUBKTNV-1">
          <mxGeometry x="354" y="555" width="120" height="60" as="geometry" />
        </mxCell>
        <mxCell id="Wk7fpPeWcC95KeSPL6q8-2" value="THE SERVER - I BELIEVE THIS IS A SCRIPT THAT&amp;nbsp; INSTANTIATES OR &#39;RUNS&#39; LISTENERS, WAITING TO RECEIVE COMMUNICATION ON A SPECIFIC PORT.&amp;nbsp; THIS SERVER IS THE PROGRAM THAT ALLOWS THE STATIC DATABASE" style="rounded=1;whiteSpace=wrap;html=1;verticalAlign=bottom;" vertex="1" parent="WIyWlLk6GJQsqaUBKTNV-1">
          <mxGeometry x="190" y="130" width="310" height="200" as="geometry" />
        </mxCell>
        <mxCell id="Wk7fpPeWcC95KeSPL6q8-0" value="DATABASE - STATIC - ACTUAL DATA" style="rounded=1;whiteSpace=wrap;html=1;" vertex="1" parent="WIyWlLk6GJQsqaUBKTNV-1">
          <mxGeometry x="285" y="140" width="120" height="60" as="geometry" />
        </mxCell>
      </root>
    </mxGraphModel>
  </diagram>
</mxfile>
